<?xml version="1.0" encoding="utf-8"?><svg id="Layer_1" data-name="Layer 1" xmlns="http://www.w3.org/2000/svg" viewBox="0 0 393.04 398.82">
  <title>newnewlandingpage</title>
  <polygon points="211.06 280.59 247.31 280.44 247.31 152 226.66 131.34 138.59 131.34 138.59 280.44 174.41 280.59 211.06 280.59" style="fill: #a2cfdc"/>
  <polyline points="146.41 126.94 134.38 126.94 134.38 276.05 170.2 276.19 206.84 276.19 243.1 276.05 243.1 147.6 222.44 126.94" style="fill: none;stroke: #1c4665;stroke-linecap: round;stroke-linejoin: round;stroke-width: 1.875px"/>
  <polygon points="222.1 270.61 259.76 270.47 259.76 142.02 238.3 121.36 146.82 121.36 146.82 270.47 184.03 270.61 222.1 270.61" style="fill: #a2cfdc"/>
  <polygon points="219.86 264.66 256.11 264.51 256.11 136.07 235.45 115.41 147.39 115.41 147.39 264.51 183.21 264.66 219.86 264.66" style="fill: none;stroke: #1c4665;stroke-linecap: round;stroke-linejoin: round;stroke-width: 1.875px"/>
  <polyline points="235.19 116.96 235.19 136.93 256.11 136.93" style="fill: none;stroke: #1c4665;stroke-linecap: round;stroke-linejoin: round;stroke-width: 1.875px"/>
  <line x1="162.73" y1="144.5" x2="241.31" y2="144.5" style="fill: none;stroke: #1c4665;stroke-linecap: round;stroke-linejoin: round;stroke-width: 1.875px"/>
  <line x1="162.73" y1="151.95" x2="241.31" y2="151.95" style="fill: none;stroke: #1c4665;stroke-linecap: round;stroke-linejoin: round;stroke-width: 1.875px"/>
  <line x1="162.73" y1="161.1" x2="241.31" y2="161.1" style="fill: none;stroke: #1c4665;stroke-linecap: round;stroke-linejoin: round;stroke-width: 1.875px"/>
  <circle cx="177.33" cy="186.05" r="16.16" style="fill: none;stroke: #1c4665;stroke-linecap: round;stroke-linejoin: round;stroke-width: 1.875px"/>
  <line x1="193.49" y1="186.05" x2="161.18" y2="186.05" style="fill: none;stroke: #1c4665;stroke-linecap: round;stroke-linejoin: round;stroke-width: 1.875px"/>
  <g>
    <rect x="162.75" y="211" width="78" height="47" style="fill: none;stroke: #1c4665;stroke-linecap: round;stroke-linejoin: round;stroke-width: 1.875px"/>
    <rect x="177.33" y="227.03" width="9.33" height="30.97" style="fill: none;stroke: #1c4665;stroke-linecap: round;stroke-linejoin: round;stroke-width: 1.875px"/>
    <rect x="197.08" y="217.67" width="9.33" height="40.33" style="fill: none;stroke: #1c4665;stroke-linecap: round;stroke-linejoin: round;stroke-width: 1.875px"/>
    <rect x="215.67" y="237.83" width="9.33" height="20.17" style="fill: none;stroke: #1c4665;stroke-linecap: round;stroke-linejoin: round;stroke-width: 1.875px"/>
  </g>
  <line x1="177.33" y1="170.25" x2="177.33" y2="186.05" style="fill: none;stroke: #1c4665;stroke-linecap: round;stroke-linejoin: round;stroke-width: 1.875px"/>
  <line x1="201.81" y1="182.32" x2="241.31" y2="182.32" style="fill: none;stroke: #1c4665;stroke-linecap: round;stroke-linejoin: round;stroke-width: 1.875px"/>
  <line x1="201.81" y1="189.78" x2="241.31" y2="189.78" style="fill: none;stroke: #1c4665;stroke-linecap: round;stroke-linejoin: round;stroke-width: 1.875px"/>
</svg>
