<?xml version="1.0" encoding="utf-8"?><svg id="Layer_1" data-name="Layer 1" xmlns="http://www.w3.org/2000/svg" viewBox="0 0 372.2 93.2"><defs><style>.cls-1{fill:#fff;}</style></defs><title>verablylogo_white</title><path class="cls-1" d="M5.6,36.7H0V30.6H19.8v5.9H13L25.6,64.6,38.1,36.5h-7V30.6H50.8v6.1H45.2L27.3,74.6H23.5Z" transform="translate(0 0)"/><path class="cls-1" d="M67.8,53.9c1,9.4,7.2,14,16.4,14,5.7,0,10-1.8,15-4.7l-0.6,6.7A29.71,29.71,0,0,1,83.3,74c-13.6,0-22.7-9-22.7-22,0-11.8,7.9-22.2,20.9-22.2,12.7,0,19.5,9.5,19.5,20.1a15.39,15.39,0,0,1-.4,4H67.8Zm0.1-5.5H94c-0.5-7.5-4.8-12.7-12.9-12.7C74.6,35.7,68.9,40.3,67.9,48.4Z" transform="translate(0 0)"/><path class="cls-1" d="M146.9,35.4a5,5,0,0,1-4.8,5.1,5.39,5.39,0,0,1-5.1-3.6c-3.2.9-7.1,4.7-9.2,9V67.2h8v6H114.1v-6h6.8V36.7h-6.8V30.6h13.4v9.7c3.3-5.9,8.4-10.5,13-10.5C144.7,29.8,146.9,32.5,146.9,35.4Z" transform="translate(0 0)"/><path class="cls-1" d="M157.5,61.8c0-7.8,6.9-12.9,16.4-12.9a43.51,43.51,0,0,1,12.3,2V45a9.56,9.56,0,0,0-1.9-6c-1.9-2.1-5-3.4-9.3-3.4a11.08,11.08,0,0,0-6.6,1.8,6.55,6.55,0,0,1,.6,2.5,4.28,4.28,0,0,1-4.15,4.4H164.5A4.36,4.36,0,0,1,160.09,40q0-.14,0-0.29c0-4.9,5.6-9.9,15.8-9.9,6.3,0,10.9,1.9,13.7,5a13.25,13.25,0,0,1,3.2,9.2V67.2h6.9v6H186.4V67.8A22,22,0,0,1,171.6,74C163.4,74,157.5,69.1,157.5,61.8Zm28.7,0.7V55.4a44.15,44.15,0,0,0-11.5-1.7c-6.8,0-10.2,3.2-10.2,7.6,0,4.1,3.1,7.1,8.9,7.1,5.1,0,9.5-2.6,12.8-5.9h0Z" transform="translate(0 0)"/><path class="cls-1" d="M221.7,68.8l-2.1,4.5h-4.3V6h-6.8V0h13.7V36.2c3.6-3.5,7.8-6.4,14.6-6.4,11.1,0,20.3,8.9,20.3,22.1,0,12.2-8.8,22.1-21.4,22.1A21.9,21.9,0,0,1,221.7,68.8ZM250,52c0-9.7-6.1-16.2-14.4-16.2-5.5,0-9.9,2.8-13.4,6.4v21A20.81,20.81,0,0,0,235.3,68C243.5,68,250,61.6,250,52Z" transform="translate(0 0)"/><path class="cls-1" d="M270,67.2h7.2V6H270V0h14.1V67.2h7.2v6H270v-6Z" transform="translate(0 0)"/><path class="cls-1" d="M309.7,93.2c-4,0-7.4-2.3-7.4-5.6a4.12,4.12,0,0,1,3.83-4.39h0.47a4.82,4.82,0,0,1,4.5,3.7c1.6-.6,3.2-1.9,5.1-4.8a61.83,61.83,0,0,0,3.2-6l2.6-5.3L306,36.7h-5.9V30.6H320v5.9h-6.7s12.1,27.4,12,27.4l12.2-27.4h-7V30.6h19.6v6.1h-5.8L324.2,79.9a39,39,0,0,1-3.5,6.1C317.5,90.6,314,93.2,309.7,93.2Z" transform="translate(0 0)"/><path class="cls-1" d="M360,67.7a6.11,6.11,0,1,1,0,.18Q360,67.79,360,67.7Z" transform="translate(0 0)"/></svg>