<?xml version="1.0" encoding="utf-8"?><svg id="Layer_1" data-name="Layer 1" xmlns="http://www.w3.org/2000/svg" viewBox="0 0 393.04 398.82">
  <title>newnewlandingpage</title>
  <polygon points="293.3 188.78 279.55 188.78 279.55 175.03 270.05 175.03 270.05 188.78 256.3 188.78 256.3 198.28 270.05 198.28 270.05 212.03 279.55 212.03 279.55 198.28 293.3 198.28 293.3 188.78" style="fill: #fff;stroke: #1c4665;stroke-linecap: round;stroke-linejoin: round;stroke-width: 1.875px"/>
  <path d="M269.53,242.69a42.91,42.91,0,0,0-1.41-5.31,44.83,44.83,0,0,0-4.73-9.85,51.1,51.1,0,0,0-15.93-15.61,57,57,0,0,0-10.2-5.05q-2.71-1-5.51-1.78a17.92,17.92,0,0,1-3.32-1A3.73,3.73,0,0,1,227,203a5.2,5.2,0,0,1-.33-5.46c.53-.82,1.46-1.07,2.24-1.58s1.57-1,2.32-1.63a28.38,28.38,0,0,0,4.12-4,31.19,31.19,0,0,0,5.76-10.39,33.77,33.77,0,0,0,1.67-10.53c0-16.81-12.1-30.44-27-30.44s-27,13.63-27,30.44a32.34,32.34,0,0,0,8.53,22.16,27.73,27.73,0,0,0,4.47,3.83c.82.56,1.78.9,2.56,1.54,1.25,1,1.35,2.48,1.07,4a4.45,4.45,0,0,1-2.24,3.31,55.17,55.17,0,0,1-5.8,1.67c-2,.65-4,1.4-6,2.25a54.28,54.28,0,0,0-10.86,6.25,49.4,49.4,0,0,0-14.52,17,43.36,43.36,0,0,0-4.67,16.76H270.25C270.33,248.1,269.62,243.14,269.53,242.69Z" style="fill: #52acc4;stroke: #52acc4;stroke-linecap: round;stroke-linejoin: round;stroke-width: 1.5px;opacity: 0.7000000000000001"/>
  <path d="M274.08,243.89a42.91,42.91,0,0,0-1.41-5.31,44.83,44.83,0,0,0-4.73-9.85A51.1,51.1,0,0,0,252,213.11a57,57,0,0,0-10.2-5.05q-2.71-1-5.51-1.78a17.92,17.92,0,0,1-3.32-1,3.73,3.73,0,0,1-1.4-1.15,5.2,5.2,0,0,1-.33-5.46c.53-.82,1.46-1.07,2.24-1.58s1.57-1,2.32-1.63a28.38,28.38,0,0,0,4.12-4,31.19,31.19,0,0,0,5.76-10.39,33.77,33.77,0,0,0,1.67-10.53c0-16.81-12.1-30.44-27-30.44s-27,13.63-27,30.44a32.34,32.34,0,0,0,8.53,22.16,27.73,27.73,0,0,0,4.47,3.83c.82.56,1.78.9,2.56,1.54,1.25,1,1.35,2.48,1.07,4a4.45,4.45,0,0,1-2.24,3.31,55.17,55.17,0,0,1-5.8,1.67c-2,.65-4,1.4-6,2.25A54.28,54.28,0,0,0,185,215.56a49.4,49.4,0,0,0-14.52,17,43.36,43.36,0,0,0-4.67,16.76H274.79C274.87,249.3,274.17,244.33,274.08,243.89Z" style="fill: none;stroke: #1c4665;stroke-linecap: round;stroke-linejoin: round;stroke-width: 1.875px"/>
  <path d="M213.89,254.58a42.91,42.91,0,0,0-1.41-5.31,44.83,44.83,0,0,0-4.73-9.85,51.1,51.1,0,0,0-15.93-15.61,57,57,0,0,0-10.2-5.05q-2.71-1-5.51-1.78a17.92,17.92,0,0,1-3.32-1,3.73,3.73,0,0,1-1.4-1.15,5.2,5.2,0,0,1-.33-5.46c.53-.82,1.46-1.07,2.24-1.58s1.57-1,2.32-1.63a28.38,28.38,0,0,0,4.12-4,31.19,31.19,0,0,0,5.76-10.39,33.77,33.77,0,0,0,1.67-10.53c0-16.81-12.1-30.44-27-30.44s-27,13.63-27,30.44a32.34,32.34,0,0,0,8.53,22.16,27.73,27.73,0,0,0,4.47,3.83c.82.56,1.78.9,2.56,1.54,1.25,1,1.35,2.48,1.07,4a4.45,4.45,0,0,1-2.24,3.31,55.17,55.17,0,0,1-5.8,1.67c-2,.65-4,1.4-6,2.25a54.28,54.28,0,0,0-10.86,6.25,49.4,49.4,0,0,0-14.52,17A43.36,43.36,0,0,0,105.66,260H214.6C214.68,260,214,255,213.89,254.58Z" style="fill: #fff"/>
  <path d="M209.34,253.39a42.91,42.91,0,0,0-1.41-5.31,44.83,44.83,0,0,0-4.73-9.85,51.1,51.1,0,0,0-15.93-15.61,57,57,0,0,0-10.2-5.05q-2.71-1-5.51-1.78a17.92,17.92,0,0,1-3.32-1,3.73,3.73,0,0,1-1.4-1.15,5.2,5.2,0,0,1-.33-5.46c.53-.82,1.46-1.07,2.24-1.58s1.57-1,2.32-1.63a28.38,28.38,0,0,0,4.12-4,31.19,31.19,0,0,0,5.76-10.39,33.77,33.77,0,0,0,1.67-10.53c0-16.81-12.1-30.44-27-30.44s-27,13.63-27,30.44a32.34,32.34,0,0,0,8.53,22.16,27.73,27.73,0,0,0,4.47,3.83c.82.56,1.78.9,2.56,1.54,1.25,1,1.35,2.48,1.07,4a4.45,4.45,0,0,1-2.24,3.31,55.17,55.17,0,0,1-5.8,1.67c-2,.65-4,1.4-6,2.25a54.28,54.28,0,0,0-10.86,6.25,49.4,49.4,0,0,0-14.52,17,43.36,43.36,0,0,0-4.67,16.76H210.06C210.14,258.8,209.43,253.83,209.34,253.39Z" style="fill: #6d7890;stroke: #6d7890;stroke-linecap: round;stroke-linejoin: round;stroke-width: 1.5px;opacity: 0.6000000000000001"/>
  <path d="M213.89,254.58a42.91,42.91,0,0,0-1.41-5.31,44.83,44.83,0,0,0-4.73-9.85,51.1,51.1,0,0,0-15.93-15.61,57,57,0,0,0-10.2-5.05q-2.71-1-5.51-1.78a17.92,17.92,0,0,1-3.32-1,3.73,3.73,0,0,1-1.4-1.15,5.2,5.2,0,0,1-.33-5.46c.53-.82,1.46-1.07,2.24-1.58s1.57-1,2.32-1.63a28.38,28.38,0,0,0,4.12-4,31.19,31.19,0,0,0,5.76-10.39,33.77,33.77,0,0,0,1.67-10.53c0-16.81-12.1-30.44-27-30.44s-27,13.63-27,30.44a32.34,32.34,0,0,0,8.53,22.16,27.73,27.73,0,0,0,4.47,3.83c.82.56,1.78.9,2.56,1.54,1.25,1,1.35,2.48,1.07,4a4.45,4.45,0,0,1-2.24,3.31,55.17,55.17,0,0,1-5.8,1.67c-2,.65-4,1.4-6,2.25a54.28,54.28,0,0,0-10.86,6.25,49.4,49.4,0,0,0-14.52,17A43.36,43.36,0,0,0,105.66,260H214.6C214.68,260,214,255,213.89,254.58Z" style="fill: none;stroke: #1c4665;stroke-linecap: round;stroke-linejoin: round;stroke-width: 1.875px"/>
</svg>
