<?xml version="1.0" encoding="utf-8"?><svg id="Layer_1" data-name="Layer 1" xmlns="http://www.w3.org/2000/svg" viewBox="0 0 393.04 398.82">
  <title>newnewlandingpage</title>
  <path d="M322.55,84.78H78.22a15,15,0,0,0-15,15V258a15,15,0,0,0,15,15H172l-6.23,29.47a13.64,13.64,0,0,0,13.6,13.6h41.94a13.64,13.64,0,0,0,13.6-13.6L228.73,273h93.82a15,15,0,0,0,15-15V99.78A15,15,0,0,0,322.55,84.78Z" style="fill: #dae8ee"/>
  <rect x="134.44" y="131.09" width="120.49" height="17.35" style="fill: #52acc4;stroke: #52acc4;stroke-linecap: round;stroke-linejoin: round;stroke-width: 1.5px;opacity: 0.9"/>
  <circle cx="145.01" cy="139.77" r="6.31" style="fill: #1c4665"/>
  <line x1="156.18" y1="139.77" x2="248.6" y2="139.77" style="fill: none;stroke: #1c4665;stroke-linecap: round;stroke-linejoin: round;stroke-width: 1.875px"/>
  <circle cx="145.01" cy="157.77" r="6.31" style="fill: #1c4665"/>
  <line x1="156.18" y1="157.77" x2="248.6" y2="157.77" style="fill: none;stroke: #1c4665;stroke-linecap: round;stroke-linejoin: round;stroke-width: 1.875px"/>
  <circle cx="145.01" cy="175.77" r="6.31" style="fill: #1c4665"/>
  <line x1="156.18" y1="175.77" x2="248.6" y2="175.77" style="fill: none;stroke: #1c4665;stroke-linecap: round;stroke-linejoin: round;stroke-width: 1.875px"/>
  <circle cx="145.01" cy="193.77" r="6.31" style="fill: #1c4665"/>
  <line x1="156.18" y1="193.77" x2="248.6" y2="193.77" style="fill: none;stroke: #1c4665;stroke-linecap: round;stroke-linejoin: round;stroke-width: 1.875px"/>
  <circle cx="145.01" cy="211.77" r="6.31" style="fill: #1c4665"/>
  <line x1="156.18" y1="211.77" x2="248.6" y2="211.77" style="fill: none;stroke: #1c4665;stroke-linecap: round;stroke-linejoin: round;stroke-width: 1.875px"/>
  <g>
    <rect x="57.52" y="80.5" width="274.33" height="188.17" rx="12" ry="12" style="fill: none;stroke: #1c4665;stroke-miterlimit: 10;stroke-width: 1.875px"/>
    <path d="M223,268.67l6.23,29.47a13.64,13.64,0,0,1-13.6,13.6H173.71a13.64,13.64,0,0,1-13.6-13.6l6.23-29.47" style="fill: none;stroke: #1c4665;stroke-miterlimit: 10;stroke-width: 1.875px"/>
    <rect x="71.57" y="95.64" width="246.23" height="157.89" rx="10.41" ry="10.41" style="fill: none;stroke: #1c4665;stroke-miterlimit: 10;stroke-width: 1.875px"/>
  </g>
  <polygon points="254.93 148.44 252.14 150.18 252.63 146.24 253.12 142.3 255.67 145.34 258.22 148.38 254.93 148.44" style="fill: #1c4665;stroke: #1c4665;stroke-linecap: round;stroke-linejoin: round;stroke-width: 1.875px"/>
</svg>
